<svg width="140" height="87" viewBox="0 0 140 87" fill="none" xmlns="http://www.w3.org/2000/svg">
<path d="M36.9317 86.2269C29.8518 86.2269 23.0889 85.0645 16.643 82.7398C10.1971 80.415 4.64945 76.9807 -4.13247e-05 72.4369L7.60821 58.647C12.5747 62.6624 17.4355 65.6212 22.1907 67.5233C26.9459 69.4253 31.5953 70.3763 36.1392 70.3763C40.2603 70.3763 43.5361 69.6367 45.9665 68.1573C48.5026 66.6779 49.7706 64.4588 49.7706 61.5C49.7706 58.4356 48.2384 56.375 45.174 55.3183C42.1095 54.156 37.8299 52.7294 32.335 51.0387C26.2062 49.1366 21.0812 47.1817 16.96 45.174C12.8389 43.1663 9.72161 40.7359 7.60821 37.8828C5.60048 35.0297 4.59661 31.3312 4.59661 26.7874C4.59661 18.6508 7.66105 12.1521 13.7899 7.29124C19.9188 2.43041 28.0554 0 38.1997 0C44.1173 0 49.7178 0.951029 55.0013 2.85309C60.2848 4.64949 63.4075 6.31362 67.9428 10.2469C64.6508 13.1518 60.9209 18.7467 59.3835 23.7199C52.2178 18.125 44.8569 15.692 37.2487 15.692C33.8672 15.692 30.8556 16.326 28.2139 17.5941C25.6778 18.8621 24.4098 21.0812 24.4098 24.2513C24.4098 27.2101 25.625 29.3235 28.0554 30.5915C30.5915 31.8596 34.3956 33.2333 39.4678 34.7127C46.0193 36.7204 51.567 38.6753 56.1108 40.5773C60.7603 42.4794 64.2474 44.9098 66.5722 47.8686C69.0026 50.8274 70.2178 54.8428 70.2178 59.915C70.2178 68.1573 67.2062 74.6032 61.183 79.2526C55.1598 83.9021 47.076 86.2269 36.9317 86.2269Z" fill="black"/>
<path d="M102.276 86.2269C93.2939 86.2269 85.5271 84.2191 78.9756 80.2037C72.424 76.1882 67.3519 70.9047 63.7591 64.3531C60.1663 57.8016 58.3699 50.7217 58.3699 43.1134C58.3699 35.3995 60.1135 28.2668 63.6006 21.7152C67.1934 15.1637 72.2655 9.933 78.8171 6.0232C85.3686 2.1134 93.1354 0.158501 102.117 0.158501C111.205 0.158501 118.919 2.1134 125.259 6.0232C131.705 9.933 136.513 15.058 139.683 21.3982L118.919 27.7384C115.22 21.3982 109.567 18.2281 101.959 18.2281C97.8377 18.2281 94.1393 19.2848 90.8635 21.3982C87.5877 23.4059 84.9988 26.3119 83.0967 30.116C81.1947 33.8145 80.2436 38.1469 80.2436 43.1134C80.2436 47.9743 81.1947 52.3067 83.0967 56.1109C85.1045 59.8093 87.7462 62.7681 91.022 64.9872C94.2978 67.1006 97.9434 68.1573 101.959 68.1573C105.763 68.1573 109.25 67.2591 112.42 65.4627C115.696 63.5606 117.968 61.183 119.236 58.3299L140 64.6702C137.147 70.9047 132.392 76.0825 125.735 80.2037C119.183 84.2191 111.363 86.2269 102.276 86.2269Z" fill="black"/>
</svg>
